<!DOCTYPE svg PUBLIC "-//W3C//DTD SVG 1.1//EN" "http://www.w3.org/Graphics/SVG/1.1/DTD/svg11.dtd">
<!-- Uploaded to: SVG Repo, www.svgrepo.com, Transformed by: SVG Repo Mixer Tools -->
<svg height="256px" width="256px" version="1.1" id="Layer_1" xmlns="http://www.w3.org/2000/svg" xmlns:xlink="http://www.w3.org/1999/xlink" viewBox="-51.2 -51.2 614.40 614.40" xml:space="preserve" fill="#000000" stroke="#000000" stroke-width="0.00512" transform="rotate(0)matrix(1, 0, 0, -1, 0, 0)">
<g id="SVGRepo_bgCarrier" stroke-width="0" transform="translate(0,0), scale(1)"/>
<g id="SVGRepo_tracerCarrier" stroke-linecap="round" stroke-linejoin="round" stroke="#CCCCCC" stroke-width="5.12"/>
<g id="SVGRepo_iconCarrier"> <path style="fill:#FF4B26;" d="M428.522,439.652H83.478C37.446,439.652,0,402.206,0,356.174V155.826 c0-46.032,37.446-83.478,83.478-83.478h345.043c46.032,0,83.478,37.446,83.478,83.478v200.348 C512,402.206,474.554,439.652,428.522,439.652z"/> <path style="fill:#D93F21;" d="M0,256v100.174c0,46.032,37.446,83.478,83.478,83.478h345.043c46.032,0,83.478-37.446,83.478-83.478 V256H0z"/> <path style="fill:#E6F3FF;" d="M194.783,372.87c-2.652,0-5.315-0.63-7.75-1.902c-5.5-2.892-8.946-8.587-8.946-14.793V155.826 c0-6.206,3.446-11.902,8.946-14.793c5.49-2.881,12.152-2.468,17.25,1.065l144.696,100.174c4.511,3.12,7.196,8.25,7.196,13.728 c0,5.478-2.685,10.608-7.196,13.728L204.282,369.902C201.445,371.87,198.12,372.87,194.783,372.87z"/> <path style="fill:#CFDBE6;" d="M178.087,356.174c0,6.206,3.446,11.902,8.946,14.793c2.435,1.272,5.098,1.902,7.75,1.902 c3.337,0,6.663-1,9.5-2.967l144.696-100.174c4.511-3.12,7.196-8.25,7.196-13.728H178.087V356.174z"/> </g>
</svg>